<!DOCTYPE svg PUBLIC "-//W3C//DTD SVG 1.1//EN" "http://www.w3.org/Graphics/SVG/1.1/DTD/svg11.dtd">
<!-- Uploaded to: SVG Repo, www.svgrepo.com, Transformed by: SVG Repo Mixer Tools -->
<svg fill="#c1c3ce" height="64px" width="64px" version="1.1" id="Layer_1" xmlns="http://www.w3.org/2000/svg" xmlns:xlink="http://www.w3.org/1999/xlink" viewBox="0 0 511.999 511.999" xml:space="preserve">
<g id="SVGRepo_bgCarrier" stroke-width="0"/>
<g id="SVGRepo_tracerCarrier" stroke-linecap="round" stroke-linejoin="round"/>
<g id="SVGRepo_iconCarrier"> <g> <g> <path d="M358.158,66.512l-15.987-18.585c-0.927-1.078-2.278-1.697-3.699-1.697h-14.625c-1.629,0-3.138,0.86-3.967,2.263 c-0.829,1.403-0.857,3.139-0.071,4.567l1.149,2.088c0.755,1.372,0.815,3.021,0.162,4.444c-0.653,1.424-1.941,2.454-3.474,2.777 l-7.26,1.532c-1.814,0.383-3.222,1.815-3.574,3.635c-0.35,1.823,0.423,3.676,1.964,4.708l2.019,1.351 c2.139,1.431,2.823,4.262,1.573,6.511l-3.187,5.735c-1.132,2.038-0.564,4.601,1.323,5.97l15.415,11.178 c1.063,0.771,2.405,1.052,3.69,0.771c1.283-0.281,2.387-1.096,3.031-2.24l8.073-14.322l6.422,4.247 c1.231,0.815,2.778,0.99,4.16,0.472c1.382-0.518,2.433-1.667,2.825-3.09l4.988-18.083 C359.516,69.262,359.159,67.676,358.158,66.512z"/> </g> </g> <g> <g> <path d="M258.862,133.128c-5.738-8.173-17.017-10.147-25.187-4.407l-64.059,44.983l-46.479,4.093 c0.345-0.161-22.918-0.656-22.918-0.656c-8.082-0.058-15.852,3.118-21.578,8.82c-5.728,5.702-8.938,13.458-8.916,21.54 l0.281,102.692c0.022,8.054,3.252,15.769,8.978,21.435c4.038,3.997,9.084,6.737,14.533,7.987H55.459L29.655,208.343 c-1.594-8.111-9.465-13.39-17.572-11.798c-8.111,1.594-13.393,9.462-11.798,17.572l28.178,143.35 c1.379,7.019,7.532,12.08,14.685,12.08h2.577l-31.841,82.562c-1.984,5.141,0.577,10.917,5.719,12.899 c5.134,1.981,10.915-0.572,12.899-5.719l34.611-89.744h56.836l19.549,50.688l-6.271,15.849 c-4.41,11.142,1.049,23.748,12.191,28.159c11.137,4.408,23.747-1.046,28.159-12.191l49.252-124.463 c2.648-6.691,1.806-14.26-2.249-20.206c-4.042-5.929-10.753-9.473-17.925-9.473c-0.02,0-0.042,0-0.063,0l-49.88,0.145 l1.234-78.368l-29.437-6.058l49.114-4.325c3.166-0.279,6.204-1.388,8.803-3.215l68.03-47.771 C262.628,152.578,264.601,141.301,258.862,133.128z M147.915,369.546v0.001c8.265,0,14.966-6.701,14.966-14.967 c0-5.661-3.145-10.586-7.781-13.129l19.597-0.058l-20.367,51.471l-8.993-23.318H147.915z"/> </g> </g> <g> <g> <circle cx="137.686" cy="123.588" r="39.908"/> </g> </g> <g> <g> <path d="M428.752,231.275l0.324-20.583l35.247-17.326c3.424-1.684,6.229-4.407,8.011-7.781l37.568-71.118 c4.664-8.829,1.288-19.768-7.542-24.432c-8.828-4.663-19.767-1.288-24.432,7.541l-34.826,65.926l-32.771,16.108 c-3.545-1.454-7.366-2.243-11.273-2.271l-27.852-0.2c-16.836-0.121-30.541,13.532-30.495,30.361l0.282,102.692 c0.022,8.054,3.252,15.769,8.977,21.435c4.038,3.997,9.084,6.737,14.533,7.987h-38.056l-25.801-131.271 c-1.594-8.111-9.462-13.39-17.572-11.798c-8.111,1.594-13.393,9.462-11.798,17.572l28.178,143.35 c1.379,7.019,7.532,12.08,14.685,12.08h2.576l-31.841,82.562c-1.984,5.141,0.577,10.917,5.719,12.899 c5.134,1.981,10.915-0.573,12.898-5.719l34.612-89.744h56.836l19.549,50.688l-6.271,15.849 c-4.41,11.142,1.049,23.748,12.191,28.159c11.139,4.409,23.748-1.048,28.159-12.191l49.253-124.463 c5.622-14.209-4.866-29.68-20.174-29.68c-0.021,0-0.042,0-0.063,0l-66.751,0.195l-0.46-0.073 c-8.689-1.381-15.543-7.326-18.518-14.974c-6.788-17.577-16.859-55.839-16.859-55.839l28.122,50.405 c3.193,5.724,9.234,9.272,15.789,9.272h72.798c9.986,0,18.081-8.095,18.081-18.081c0-9.986-8.094-18.081-18.081-18.081h-62.181 l-27.352-49.023C411.59,210.845,420.588,221.029,428.752,231.275z M418.904,369.546v0.001c8.265,0,14.966-6.701,14.966-14.967 c0-5.661-3.145-10.586-7.781-13.129l19.598-0.058l-20.368,51.47l-8.992-23.317H418.904z"/> </g> </g> <g> <g> <circle cx="408.67" cy="123.588" r="39.908"/> </g> </g> </g>
</svg>